<svg id="Capa_1" enable-background="new 0 0 512 512" height="512" viewBox="0 0 512 512" width="512" xmlns="http://www.w3.org/2000/svg"><path d="m511.622 167.206c-.035-15.415-11.481-28.421-26.767-30.415-18.402-2.4-34.72 11.927-34.72 30.486l.001 59.92c5.189 2.389 9.971 5.698 14.132 9.858 9.227 9.227 14.309 21.496 14.309 34.545 0 13.051-5.082 25.319-14.31 34.547l-64.66 64.66c-2.929 2.929-6.768 4.394-10.606 4.394s-7.678-1.465-10.606-4.394c-5.858-5.857-5.858-15.355 0-21.213l64.66-64.661c5.086-4.68 10.599-16.536 0-26.665-10.475-10.011-23.104-3.562-26.666 0l-45.375 45.375c-3.69 3.69-8.824 5.05-13.583 4.091l-16.991-1.015c-10.165-1.169-20.307 2.366-27.543 9.601l-24.322 24.322c-11.254 11.252-17.575 26.513-17.575 42.426v118.932c0 5.523 4.477 10 10 10h106c5.523 0 10-4.477 10-10v-33.511l100.268-100.269c9.461-9.461 14.762-22.301 14.732-35.68z" fill="#f9a9a9"/><path d="m.378 167.206c.035-15.415 11.481-28.421 26.767-30.415 18.402-2.4 34.72 11.927 34.72 30.486l-.001 59.92c-5.189 2.389-9.971 5.698-14.132 9.858-9.227 9.227-14.309 21.496-14.309 34.545 0 13.051 5.082 25.319 14.31 34.547l64.66 64.66c2.929 2.929 6.768 4.394 10.606 4.394s7.678-1.465 10.606-4.394c5.858-5.857 5.858-15.355 0-21.213l-64.66-64.661c-5.086-4.68-10.599-16.536 0-26.665 10.475-10.011 23.104-3.562 26.666 0l45.375 45.375c3.69 3.69 8.824 5.05 13.583 4.091l16.991-1.015c10.165-1.169 20.307 2.366 27.543 9.601l24.322 24.322c11.254 11.252 17.575 26.513 17.575 42.426v118.932c0 5.523-4.477 10-10 10h-106c-5.523 0-10-4.477-10-10v-33.511l-100.268-100.269c-9.461-9.46-14.762-22.301-14.732-35.68z" fill="#fccfcf"/><circle cx="256" cy="45.176" fill="#4bc0ff" r="45.176"/><path d="m286.242 120.353h-60.485c-23.333 0-43.669 15.888-49.314 38.528l-11.803 47.339c-1.999 8.017 4.066 15.78 12.328 15.78h158.062c8.263 0 14.327-7.762 12.328-15.78l-11.803-47.339c-5.644-22.64-25.979-38.528-49.313-38.528z" fill="#4bc0ff"/><g fill="#0592fd"><path d="m301.176 45.176c0-24.95-20.226-45.176-45.176-45.176v90.353c24.95 0 45.176-20.226 45.176-45.177z"/><path d="m347.36 206.22-11.803-47.339c-5.645-22.64-25.981-38.528-49.314-38.528h-30.243v101.647h79.031c8.263 0 14.328-7.762 12.329-15.78z"/></g></svg>